<?xml version="1.0" standalone="no"?>
<!DOCTYPE svg PUBLIC "-//W3C//DTD SVG 20010904//EN"
 "http://www.w3.org/TR/2001/REC-SVG-20010904/DTD/svg10.dtd">
<svg version="1.0" xmlns="http://www.w3.org/2000/svg"
 width="807.000000pt" height="807.000000pt" viewBox="0 0 807.000000 807.000000"
 preserveAspectRatio="xMidYMid meet">
<metadata>
Created by potrace 1.11, written by Peter Selinger 2001-2013
</metadata>
<g transform="translate(0.000000,807.000000) scale(0.100000,-0.100000)"
fill="#000000" stroke="none">
<path d="M0 4035 l0 -4035 4035 0 4035 0 0 4035 0 4035 -4035 0 -4035 0 0
-4035z m2820 2543 c0 -21 -71 -171 -111 -233 -10 -16 -22 -37 -25 -45 -10 -22
-73 -99 -111 -138 -73 -71 -230 -132 -344 -132 -43 0 -48 -3 -74 -40 -15 -22
-25 -43 -22 -47 4 -3 26 0 49 8 29 9 90 14 188 14 141 0 147 -1 230 -34 121
-48 142 -70 97 -102 -217 -155 -285 -195 -394 -227 -39 -12 -91 -22 -115 -22
-44 0 -172 31 -207 49 -50 27 -64 17 -120 -90 -65 -126 -62 -142 16 -99 86 47
144 67 251 85 91 15 103 15 201 -2 58 -10 106 -23 108 -29 10 -31 -231 -293
-327 -355 -100 -65 -242 -93 -360 -71 -40 7 -57 7 -62 -1 -22 -33 -65 -241
-56 -267 2 -8 26 7 63 42 62 56 137 106 202 134 105 44 282 70 298 44 7 -11
-48 -144 -102 -250 -71 -140 -171 -250 -261 -290 -26 -12 -85 -30 -132 -42
-47 -11 -91 -22 -97 -24 -7 -2 -13 -15 -13 -29 0 -54 32 -310 39 -318 5 -5 21
15 36 44 67 130 177 237 307 301 136 67 140 65 132 -46 -13 -188 -62 -374
-120 -458 -43 -62 -128 -133 -199 -168 -37 -18 -69 -38 -71 -45 -9 -22 108
-306 119 -289 3 5 15 50 27 99 39 161 114 287 232 388 58 50 84 53 93 13 88
-431 67 -576 -107 -747 l-77 -76 32 -49 c40 -61 80 -117 88 -124 3 -3 18 -22
34 -43 38 -51 48 -37 46 65 -4 172 69 371 183 496 28 32 28 33 123 -178 9 -19
20 -43 24 -52 22 -44 49 -141 60 -215 10 -66 10 -96 -1 -155 -7 -40 -19 -82
-26 -93 -8 -11 -14 -26 -14 -33 0 -8 -20 -44 -45 -81 -25 -37 -45 -72 -45 -78
0 -20 226 -213 249 -213 14 0 14 2 -9 120 -11 56 -20 120 -20 143 1 50 32 205
54 264 21 57 70 146 83 150 10 4 72 -77 155 -202 54 -82 118 -206 130 -252 4
-18 12 -50 18 -70 5 -21 10 -55 10 -77 0 -49 -34 -189 -60 -250 -23 -50 -19
-69 18 -89 100 -55 246 -127 258 -127 18 0 18 20 0 45 -30 43 -77 138 -97 198
-39 112 -37 397 3 405 13 3 152 -96 215 -152 120 -108 187 -195 223 -286 18
-47 21 -72 19 -197 -1 -81 2 -148 8 -154 5 -5 34 -16 64 -24 265 -75 278 -78
329 -65 57 14 143 39 195 56 22 7 55 15 73 19 17 4 33 12 33 18 1 7 2 80 3
162 l1 150 38 76 c45 90 109 165 215 251 101 83 190 148 202 148 24 0 33 -49
33 -184 0 -177 -17 -239 -117 -408 -38 -66 -20 -69 85 -18 212 104 214 106
183 178 -69 162 -70 311 -3 467 28 65 163 279 226 359 20 25 25 27 39 15 9 -7
29 -40 44 -74 76 -161 98 -331 65 -482 -9 -37 -18 -78 -20 -91 -4 -17 -1 -22
14 -22 11 0 23 5 26 10 3 6 36 35 73 64 37 30 87 72 111 95 l45 40 -46 68
c-25 37 -49 79 -53 93 -4 14 -11 30 -16 35 -4 6 -15 46 -24 89 -15 71 -15 85
0 173 9 52 20 103 24 112 5 9 19 43 31 76 33 85 119 265 128 265 15 0 94 -108
124 -170 61 -128 73 -181 73 -338 0 -67 2 -118 3 -112 2 5 11 10 20 10 10 0
31 19 47 42 62 86 135 193 135 198 0 3 -35 42 -79 86 -53 55 -89 104 -112 150
l-34 69 1 165 c0 124 5 178 17 219 9 30 17 68 17 85 0 34 19 77 36 83 20 6
148 -116 197 -187 52 -78 80 -152 121 -322 6 -27 26 -40 26 -17 0 5 8 29 18
52 10 23 26 62 36 87 10 25 24 60 32 78 27 62 21 73 -63 117 -124 65 -200 150
-249 280 -39 101 -80 407 -59 425 33 28 217 -74 312 -171 54 -56 78 -89 127
-173 20 -35 31 -45 36 -35 10 19 33 266 29 308 l-4 35 -95 23 c-230 54 -328
157 -470 488 -21 49 -36 93 -34 97 10 15 130 8 199 -12 135 -39 220 -87 327
-186 20 -19 40 -34 44 -34 4 0 4 15 0 33 -3 17 -12 66 -20 107 -7 41 -21 92
-29 112 -15 36 -18 37 -49 30 -18 -4 -76 -7 -128 -7 -104 1 -153 15 -250 71
-88 52 -335 317 -328 352 2 13 26 21 103 34 93 16 108 16 204 2 116 -17 168
-36 269 -96 53 -32 52 -1 -4 110 -43 85 -53 97 -77 100 -16 2 -34 -2 -42 -8
-18 -15 -167 -50 -213 -50 -85 0 -232 60 -357 145 -132 91 -174 126 -168 141
6 17 64 47 148 76 100 35 303 36 413 3 31 -10 29 15 -4 54 -22 26 -33 31 -71
31 -55 0 -183 32 -242 61 -58 28 -143 109 -194 184 -58 86 -160 293 -153 310
10 28 188 8 296 -32 177 -66 371 -267 395 -408 6 -41 35 -85 54 -85 7 0 11 30
11 84 0 102 26 216 70 310 42 90 68 125 88 119 22 -6 132 -198 177 -308 50
-121 58 -228 26 -330 -27 -85 -40 -112 -88 -182 l-43 -62 30 -49 c16 -27 30
-52 30 -56 0 -4 11 -23 24 -42 25 -37 36 -31 36 21 0 28 34 138 58 185 47 94
163 233 202 243 16 4 21 -1 26 -21 3 -15 12 -47 19 -72 8 -25 21 -68 29 -96 9
-28 23 -101 32 -162 14 -101 14 -117 0 -187 -9 -43 -31 -105 -48 -138 -32 -59
-118 -158 -168 -190 -24 -17 -24 -18 -11 -74 7 -32 18 -86 25 -120 6 -34 19
-70 28 -79 15 -16 18 -12 46 47 57 119 189 255 307 313 78 38 79 35 72 -181
-6 -182 -17 -248 -56 -333 -22 -47 -95 -143 -123 -162 -13 -9 -34 -25 -47 -37
-13 -11 -56 -36 -96 -55 l-72 -34 -7 -84 c-13 -164 -19 -258 -15 -258 2 0 40
35 84 78 102 98 206 153 343 181 69 14 79 14 86 -4 5 -15 -35 -161 -55 -197
-5 -10 -9 -23 -9 -28 0 -11 -21 -62 -61 -145 -33 -70 -110 -156 -177 -197 -87
-53 -134 -69 -226 -77 l-78 -6 -26 -65 c-14 -36 -30 -78 -37 -95 -25 -59 -39
-105 -34 -109 3 -3 41 13 85 34 97 48 149 61 277 67 107 5 153 0 182 -21 17
-12 12 -21 -71 -132 -162 -218 -254 -295 -391 -328 -72 -18 -198 -18 -265 -1
-24 6 -31 1 -70 -54 -24 -34 -62 -87 -85 -119 -50 -68 -43 -83 24 -56 70 27
314 27 393 0 72 -24 140 -56 140 -64 0 -13 -245 -222 -290 -247 -14 -8 -59
-31 -100 -52 l-75 -38 -135 0 c-137 0 -191 11 -257 53 -32 20 -61 9 -118 -45
-28 -27 -72 -65 -98 -87 -26 -21 -47 -42 -47 -47 0 -5 57 -9 128 -9 125 0 195
-13 302 -52 37 -14 170 -86 170 -93 0 -2 3 -10 6 -19 4 -10 -2 -19 -17 -26
-30 -14 -63 -33 -80 -47 -32 -25 -201 -113 -279 -144 -81 -32 -91 -34 -210
-34 -106 0 -134 3 -183 23 -88 34 -134 59 -176 97 -45 41 -59 43 -109 12 -20
-13 -59 -34 -87 -48 -66 -32 -117 -66 -108 -72 5 -3 24 -8 43 -12 123 -24 251
-95 353 -196 94 -93 96 -109 17 -126 -30 -6 -73 -16 -95 -22 -331 -81 -508
-45 -678 139 l-58 62 -59 -12 c-32 -7 -74 -22 -92 -33 l-33 -20 75 -24 c101
-32 213 -88 282 -140 71 -54 74 -59 51 -85 -34 -39 -54 -38 -106 3 -69 55
-189 111 -317 150 -41 12 -94 28 -118 36 -55 17 -106 17 -162 -1 -25 -8 -76
-24 -115 -36 -135 -41 -232 -85 -304 -139 -64 -48 -92 -51 -116 -15 -17 26
-16 27 16 60 59 61 246 155 354 179 l30 7 -26 22 c-15 13 -54 29 -88 36 l-61
13 -62 -64 c-188 -192 -334 -219 -713 -128 -45 10 -88 19 -98 19 -51 0 12 93
123 182 75 60 251 138 311 138 39 0 13 24 -72 68 -46 23 -99 52 -117 62 -18
11 -38 20 -43 20 -6 0 -36 -19 -67 -42 -56 -42 -83 -57 -172 -94 -68 -29 -272
-27 -355 3 -116 42 -405 205 -405 228 0 22 26 42 114 85 124 60 215 80 363 80
140 0 148 6 80 58 -23 17 -69 57 -102 87 -33 30 -64 55 -70 55 -5 0 -44 -15
-85 -32 -72 -31 -81 -32 -210 -33 -141 0 -148 1 -255 57 -81 42 -345 255 -345
278 0 12 41 33 120 61 56 20 85 23 215 23 120 0 158 -3 189 -17 22 -10 48 -15
58 -11 17 5 16 9 -14 47 -46 59 -44 57 -83 109 -19 26 -35 52 -35 58 0 21 -46
33 -81 21 -73 -25 -263 -3 -340 40 -34 20 -140 104 -164 131 -66 74 -205 269
-205 287 0 32 200 42 317 16 70 -16 101 -28 187 -71 27 -13 51 -22 54 -19 3 2
-2 23 -11 45 -10 22 -24 58 -32 80 -31 82 -49 125 -58 138 -6 7 -32 12 -66 12
-57 0 -140 24 -215 62 -88 45 -189 170 -239 296 -48 119 -87 247 -87 280 0 26
17 28 105 7 143 -33 232 -83 340 -190 78 -77 82 -73 66 54 -6 48 -11 114 -11
147 0 32 -4 64 -8 70 -4 7 -43 29 -87 49 -131 62 -245 191 -277 313 -24 94
-27 128 -28 290 0 202 -3 198 108 132 126 -75 215 -172 273 -299 13 -28 27
-51 30 -51 16 0 29 31 39 93 5 36 15 78 20 92 6 15 10 41 10 59 0 27 -7 38
-40 61 -78 54 -161 181 -186 282 -28 121 -13 245 61 493 24 82 37 90 83 47 31
-28 122 -143 122 -153 0 -4 6 -15 14 -23 21 -25 66 -147 78 -212 6 -36 15 -58
22 -56 6 2 30 41 53 86 47 90 47 88 -6 161 -71 99 -112 251 -93 345 17 79 31
134 41 153 6 9 23 44 38 77 42 87 123 225 134 227 33 5 31 7 92 -117 48 -96
67 -179 67 -290 0 -58 4 -96 11 -101 16 -10 58 46 59 77 0 56 71 171 157 255
66 66 100 90 175 127 96 47 201 73 306 76 47 1 52 -1 52 -21z"/>
<path d="M2495 6400 c-3 -5 1 -10 10 -10 9 0 13 5 10 10 -3 6 -8 10 -10 10 -2
0 -7 -4 -10 -10z"/>
<path d="M5610 6400 c0 -5 5 -10 10 -10 6 0 10 5 10 10 0 6 -4 10 -10 10 -5 0
-10 -4 -10 -10z"/>
<path d="M2450 6370 c-12 -8 -11 -10 8 -10 12 0 22 5 22 10 0 13 -11 13 -30 0z"/>
<path d="M5645 6370 c-3 -5 3 -10 15 -10 12 0 18 5 15 10 -3 6 -10 10 -15 10
-5 0 -12 -4 -15 -10z"/>
<path d="M2395 6339 c-10 -16 1 -22 26 -14 17 6 19 9 8 16 -19 12 -26 11 -34
-2z"/>
<path d="M5702 6341 c-11 -6 -10 -10 4 -15 20 -8 32 0 18 14 -5 5 -15 5 -22 1z"/>
<path d="M2361 6311 c-10 -7 -10 -10 -1 -16 6 -4 16 -3 22 3 13 13 -4 23 -21
13z"/>
<path d="M5740 6305 c0 -8 7 -15 15 -15 8 0 15 4 15 9 0 5 -7 11 -15 15 -9 3
-15 0 -15 -9z"/>
<path d="M2310 6270 c0 -5 7 -7 15 -4 8 4 15 8 15 10 0 2 -7 4 -15 4 -8 0 -15
-4 -15 -10z"/>
<path d="M5790 6270 c20 -13 33 -13 25 0 -3 6 -14 10 -23 10 -15 0 -15 -2 -2
-10z"/>
<path d="M1918 6235 c-10 -50 -8 -252 1 -285 10 -35 18 120 11 235 -4 77 -6
84 -12 50z"/>
<path d="M6196 6239 c-8 -43 -5 -257 4 -294 4 -18 8 44 9 148 0 97 -1 177 -3
177 -2 0 -6 -14 -10 -31z"/>
<path d="M2125 5820 c-4 -6 20 -10 64 -10 38 0 73 5 76 10 4 6 -20 10 -64 10
-38 0 -73 -4 -76 -10z"/>
<path d="M5860 5820 c0 -6 30 -10 70 -10 40 0 70 4 70 10 0 6 -30 10 -70 10
-40 0 -70 -4 -70 -10z"/>
<path d="M1531 5684 c0 -11 3 -14 6 -6 3 7 2 16 -1 19 -3 4 -6 -2 -5 -13z"/>
<path d="M1560 5571 c0 -28 5 -51 10 -51 6 0 10 20 10 44 0 25 -4 48 -10 51
-6 4 -10 -13 -10 -44z"/>
<path d="M6547 5591 c-3 -15 -3 -39 0 -51 6 -22 7 -23 14 -4 11 27 11 72 0 78
-5 3 -11 -7 -14 -23z"/>
<path d="M6515 5460 c-3 -19 -2 -46 3 -59 8 -23 9 -21 16 18 8 54 -9 93 -19
41z"/>
<path d="M1590 5436 c0 -25 5 -48 10 -51 6 -4 10 13 10 44 0 28 -4 51 -10 51
-5 0 -10 -20 -10 -44z"/>
<path d="M2035 5370 c-4 -6 7 -10 24 -10 17 0 31 5 31 10 0 6 -11 10 -24 10
-14 0 -28 -4 -31 -10z"/>
<path d="M6040 5370 c0 -5 14 -10 31 -10 17 0 28 4 24 10 -3 6 -17 10 -31 10
-13 0 -24 -4 -24 -10z"/>
<path d="M1952 5341 c-10 -6 -8 -9 10 -13 28 -5 48 0 48 13 0 11 -40 12 -58 0z"/>
<path d="M6120 5341 c0 -13 27 -21 45 -15 8 4 12 10 9 15 -7 12 -54 12 -54 0z"/>
<path d="M1881 5311 c-7 -5 -9 -11 -4 -14 14 -9 54 4 47 14 -7 11 -25 11 -43
0z"/>
<path d="M6196 5311 c-7 -11 31 -22 51 -14 12 5 12 7 1 14 -17 11 -45 11 -52
0z"/>
<path d="M1818 5273 c7 -3 16 -2 19 1 4 3 -2 6 -13 5 -11 0 -14 -3 -6 -6z"/>
<path d="M6288 5273 c7 -3 16 -2 19 1 4 3 -2 6 -13 5 -11 0 -14 -3 -6 -6z"/>
<path d="M1300 4916 c0 -8 5 -18 10 -21 6 -3 10 3 10 14 0 12 -4 21 -10 21 -5
0 -10 -6 -10 -14z"/>
<path d="M6806 4922 c-2 -4 -1 -14 5 -22 7 -12 9 -10 9 8 0 23 -5 28 -14 14z"/>
<path d="M1335 4868 c-9 -22 4 -43 17 -30 7 7 7 16 0 29 -10 17 -11 17 -17 1z"/>
<path d="M6777 4873 c-11 -10 -8 -43 3 -43 6 0 10 11 10 25 0 26 -2 29 -13 18z"/>
<path d="M1880 4820 c0 -5 5 -10 10 -10 6 0 10 5 10 10 0 6 -4 10 -10 10 -5 0
-10 -4 -10 -10z"/>
<path d="M6225 4820 c3 -5 8 -10 11 -10 2 0 4 5 4 10 0 6 -5 10 -11 10 -5 0
-7 -4 -4 -10z"/>
<path d="M1366 4812 c-8 -13 3 -42 15 -42 11 0 11 21 0 39 -5 8 -11 9 -15 3z"/>
<path d="M6740 4794 c0 -14 4 -23 10 -19 6 3 10 15 10 26 0 10 -4 19 -10 19
-5 0 -10 -12 -10 -26z"/>
<path d="M1840 4790 c0 -5 7 -10 15 -10 8 0 15 5 15 10 0 6 -7 10 -15 10 -8 0
-15 -4 -15 -10z"/>
<path d="M6255 4790 c3 -5 13 -10 21 -10 8 0 12 5 9 10 -3 6 -13 10 -21 10 -8
0 -12 -4 -9 -10z"/>
<path d="M1797 4763 c-13 -13 -7 -21 13 -16 11 3 20 9 20 14 0 10 -24 12 -33
2z"/>
<path d="M6290 4760 c0 -5 7 -10 15 -10 8 0 23 -9 32 -20 10 -11 22 -20 27
-20 5 0 15 -8 22 -17 7 -10 16 -15 20 -11 8 9 -36 58 -52 58 -7 0 -14 7 -18
15 -6 17 -46 21 -46 5z"/>
<path d="M1400 4741 c0 -12 5 -21 10 -21 6 0 10 6 10 14 0 8 -4 18 -10 21 -5
3 -10 -3 -10 -14z"/>
<path d="M6710 4734 c0 -14 4 -23 10 -19 6 3 10 15 10 26 0 10 -4 19 -10 19
-5 0 -10 -12 -10 -26z"/>
<path d="M1755 4729 c-4 -6 -5 -13 -2 -16 7 -7 27 6 27 18 0 12 -17 12 -25 -2z"/>
<path d="M1721 4701 c-10 -7 -10 -10 -1 -16 6 -4 16 -3 22 3 13 13 -4 23 -21
13z"/>
<path d="M6682 4680 c0 -14 2 -19 5 -12 2 6 2 18 0 25 -3 6 -5 1 -5 -13z"/>
<path d="M1690 4659 c0 -5 5 -7 10 -4 6 3 10 8 10 11 0 2 -4 4 -10 4 -5 0 -10
-5 -10 -11z"/>
<path d="M6420 4660 c0 -5 5 -10 10 -10 6 0 10 5 10 10 0 6 -4 10 -10 10 -5 0
-10 -4 -10 -10z"/>
<path d="M1850 4144 c0 -8 5 -12 10 -9 6 3 10 10 10 16 0 5 -4 9 -10 9 -5 0
-10 -7 -10 -16z"/>
<path d="M6260 4146 c0 -9 5 -16 10 -16 6 0 10 4 10 9 0 6 -4 13 -10 16 -5 3
-10 -1 -10 -9z"/>
<path d="M1820 4109 c0 -11 5 -17 10 -14 6 3 10 13 10 21 0 8 -4 14 -10 14 -5
0 -10 -9 -10 -21z"/>
<path d="M6287 4124 c-8 -8 3 -34 14 -34 11 0 12 27 0 34 -4 3 -11 3 -14 0z"/>
<path d="M1295 4080 c3 -5 10 -10 16 -10 5 0 9 5 9 10 0 6 -7 10 -16 10 -8 0
-12 -4 -9 -10z"/>
<path d="M6810 4079 c0 -5 5 -7 10 -4 6 3 10 8 10 11 0 2 -4 4 -10 4 -5 0 -10
-5 -10 -11z"/>
<path d="M1786 4064 c-9 -22 3 -32 14 -14 12 19 12 30 1 30 -5 0 -12 -7 -15
-16z"/>
<path d="M6320 4060 c0 -11 6 -20 14 -20 9 0 12 7 9 20 -3 11 -9 20 -14 20 -5
0 -9 -9 -9 -20z"/>
<path d="M1320 4056 c0 -2 7 -9 15 -16 12 -10 15 -10 15 4 0 9 -7 16 -15 16
-8 0 -15 -2 -15 -4z"/>
<path d="M6774 4045 c-4 -8 -12 -15 -20 -15 -8 0 -14 -7 -14 -15 0 -8 -7 -15
-15 -15 -8 0 -15 -7 -15 -15 0 -8 3 -15 6 -15 8 0 84 76 84 84 0 12 -21 5 -26
-9z"/>
<path d="M1360 4023 c0 -13 50 -56 57 -50 3 4 -5 18 -18 32 -24 25 -39 32 -39
18z"/>
<path d="M1750 4015 c0 -8 4 -15 9 -15 5 0 11 7 15 15 3 9 0 15 -9 15 -8 0
-15 -7 -15 -15z"/>
<path d="M6352 4021 c4 -13 18 -16 19 -4 0 4 -5 9 -11 12 -7 2 -11 -2 -8 -8z"/>
<path d="M1727 3976 c-4 -10 -5 -21 -2 -24 9 -9 17 6 13 25 -3 17 -4 17 -11
-1z"/>
<path d="M6392 3970 c0 -14 2 -19 5 -12 2 6 2 18 0 25 -3 6 -5 1 -5 -13z"/>
<path d="M1425 3950 c3 -5 10 -10 16 -10 5 0 9 5 9 10 0 6 -7 10 -16 10 -8 0
-12 -4 -9 -10z"/>
<path d="M6680 3949 c0 -5 5 -7 10 -4 6 3 10 8 10 11 0 2 -4 4 -10 4 -5 0 -10
-5 -10 -11z"/>
<path d="M1460 3920 c0 -5 5 -10 10 -10 6 0 10 5 10 10 0 6 -4 10 -10 10 -5 0
-10 -4 -10 -10z"/>
<path d="M6071 3634 c0 -11 3 -14 6 -6 3 7 2 16 -1 19 -3 4 -6 -2 -5 -13z"/>
<path d="M6100 3552 c0 -26 4 -41 10 -37 13 8 13 45 0 65 -7 11 -10 3 -10 -28z"/>
<path d="M2010 3544 c0 -21 4 -33 10 -29 6 3 10 19 10 36 0 16 -4 29 -10 29
-5 0 -10 -16 -10 -36z"/>
<path d="M1977 3463 c-6 -31 1 -55 14 -47 12 7 12 74 0 74 -5 0 -11 -12 -14
-27z"/>
<path d="M6130 3451 c0 -23 5 -41 10 -41 6 0 10 15 10 34 0 19 -4 38 -10 41
-6 4 -10 -10 -10 -34z"/>
<path d="M1953 3350 c0 -25 2 -35 4 -22 2 12 2 32 0 45 -2 12 -4 2 -4 -23z"/>
<path d="M6160 3351 c0 -17 5 -31 10 -31 6 0 10 11 10 24 0 14 -4 28 -10 31
-6 4 -10 -7 -10 -24z"/>
<path d="M1485 3340 c3 -5 13 -10 21 -10 8 0 14 5 14 10 0 6 -9 10 -21 10 -11
0 -17 -4 -14 -10z"/>
<path d="M6600 3340 c0 -5 9 -10 19 -10 11 0 23 5 26 10 4 6 -5 10 -19 10 -14
0 -26 -4 -26 -10z"/>
<path d="M1545 3310 c3 -5 17 -10 31 -10 14 0 22 4 19 10 -3 6 -17 10 -31 10
-14 0 -22 -4 -19 -10z"/>
<path d="M6535 3310 c-4 -6 5 -10 19 -10 14 0 26 5 26 10 0 6 -9 10 -19 10
-11 0 -23 -4 -26 -10z"/>
<path d="M1610 3281 c0 -5 6 -11 13 -13 17 -7 38 2 31 13 -7 12 -44 12 -44 0z"/>
<path d="M6471 3281 c-11 -7 -11 -9 0 -13 19 -6 49 2 49 13 0 11 -31 11 -49 0z"/>
<path d="M1676 3251 c-8 -12 18 -21 33 -11 10 5 8 9 -4 14 -21 8 -23 8 -29 -3z"/>
<path d="M6417 3254 c-11 -11 3 -24 18 -18 8 4 12 10 9 15 -6 11 -18 12 -27 3z"/>
<path d="M6358 3213 c7 -3 16 -2 19 1 4 3 -2 6 -13 5 -11 0 -14 -3 -6 -6z"/>
<path d="M2336 2988 c-9 -37 -7 -222 4 -238 7 -10 10 30 10 123 0 75 -2 137
-4 137 -2 0 -6 -10 -10 -22z"/>
<path d="M5777 2990 c-9 -32 -8 -171 2 -230 6 -42 7 -40 13 40 8 97 -3 231
-15 190z"/>
<path d="M1872 2671 c-19 -11 60 -23 95 -15 25 7 25 8 8 15 -27 10 -87 11
-103 0z"/>
<path d="M6155 2671 c-19 -8 -19 -8 3 -15 31 -10 110 3 91 15 -17 11 -67 10
-94 0z"/>
<path d="M2021 2641 c-20 -13 49 -26 81 -15 22 7 22 7 3 15 -28 11 -67 10 -84
0z"/>
<path d="M6027 2643 c-25 -7 -10 -23 21 -23 44 0 76 11 60 21 -14 9 -51 10
-81 2z"/>
<path d="M2847 2530 c-15 -54 -3 -215 14 -188 10 15 10 139 0 183 l-7 30 -7
-25z"/>
<path d="M5268 2544 c-5 -4 -8 -52 -8 -108 0 -69 3 -97 10 -90 7 7 10 50 8
108 -2 54 -6 94 -10 90z"/>
<path d="M4752 2265 c0 -16 2 -22 5 -12 2 9 2 23 0 30 -3 6 -5 -1 -5 -18z"/>
<path d="M3366 2261 c-4 -7 -5 -15 -2 -18 9 -9 19 4 14 18 -4 11 -6 11 -12 0z"/>
<path d="M3396 2201 c-4 -6 -4 -21 0 -33 6 -19 7 -19 16 -5 11 20 -5 57 -16
38z"/>
<path d="M4717 2203 c-10 -9 -9 -43 2 -43 5 0 11 6 14 13 6 17 -7 40 -16 30z"/>
<path d="M3420 2127 c0 -23 11 -47 22 -47 14 0 5 53 -9 58 -7 2 -13 -3 -13
-11z"/>
<path d="M4680 2110 c0 -16 5 -30 10 -30 6 0 10 14 10 30 0 17 -4 30 -10 30
-5 0 -10 -13 -10 -30z"/>
<path d="M2443 2113 c15 -2 39 -2 55 0 15 2 2 4 -28 4 -30 0 -43 -2 -27 -4z"/>
<path d="M5633 2113 c15 -2 37 -2 50 0 12 2 0 4 -28 4 -27 0 -38 -2 -22 -4z"/>
<path d="M2668 2083 c17 -2 47 -2 65 0 17 2 3 4 -33 4 -36 0 -50 -2 -32 -4z"/>
<path d="M5388 2083 c17 -2 47 -2 65 0 17 2 3 4 -33 4 -36 0 -50 -2 -32 -4z"/>
<path d="M3458 2064 c-3 -2 -3 -16 0 -29 5 -28 22 -24 22 5 0 19 -13 34 -22
24z"/>
<path d="M4650 2039 c0 -17 4 -28 10 -24 6 3 10 17 10 31 0 13 -4 24 -10 24
-5 0 -10 -14 -10 -31z"/>
<path d="M4622 1975 c0 -16 2 -22 5 -12 2 9 2 23 0 30 -3 6 -5 -1 -5 -18z"/>
<path d="M3490 1976 c0 -9 5 -16 10 -16 6 0 10 4 10 9 0 6 -4 13 -10 16 -5 3
-10 -1 -10 -9z"/>
<path d="M3300 1730 c0 -13 60 -13 80 0 11 7 2 10 -32 10 -27 0 -48 -4 -48
-10z"/>
<path d="M4745 1730 c3 -5 21 -10 40 -10 19 0 37 5 40 10 4 6 -12 10 -40 10
-28 0 -44 -4 -40 -10z"/>
<path d="M3190 1700 c0 -5 15 -10 34 -10 19 0 38 5 41 10 4 6 -10 10 -34 10
-23 0 -41 -4 -41 -10z"/>
<path d="M4855 1700 c3 -5 24 -10 46 -10 21 0 39 5 39 10 0 6 -21 10 -46 10
-27 0 -43 -4 -39 -10z"/>
<path d="M3105 1670 c-4 -6 5 -10 19 -10 14 0 26 5 26 10 0 6 -9 10 -19 10
-11 0 -23 -4 -26 -10z"/>
<path d="M4975 1670 c-4 -6 7 -10 25 -10 18 0 29 4 25 10 -3 6 -15 10 -25 10
-10 0 -22 -4 -25 -10z"/>
</g>
</svg>
